# Rhino

mtllib Cube.mtl
o object_1
usemtl material1
v -0.5 -0.5 -0.5
v -0.5 -0.5 0.5
v -0.5 0.5 -0.5
v -0.5 0.5 0.5
v -0.5 0.5 -0.5
v -0.5 0.5 0.5
v 0.5 0.5 -0.5
v 0.5 0.5 0.5
v 0.5 0.5 -0.5
v 0.5 0.5 0.5
v 0.5 -0.5 -0.5
v 0.5 -0.5 0.5
v 0.5 -0.5 -0.5
v 0.5 -0.5 0.5
v -0.5 -0.5 -0.5
v -0.5 -0.5 0.5
v -0.5 -0.5 -0.5
v -0.5 0.5 -0.5
v 0.5 -0.5 -0.5
v 0.5 0.5 -0.5
v -0.5 -0.5 0.5
v 0.5 -0.5 0.5
v -0.5 0.5 0.5
v 0.5 0.5 0.5
vt 1 0
vt 1 1
vt 0 0
vt 0 1
vt 1 0
vt 1 1
vt 0 0
vt 0 1
vt 1 0
vt 1 1
vt 0 0
vt 0 1
vt 1 0
vt 1 1
vt 0 0
vt 0 1
vt 1 0
vt 1 1
vt 0 0
vt 0 1
vt 0 0
vt 1 0
vt 0 1
vt 1 1
vn -1 -0 -0
vn -1 -0 -0
vn -1 -0 -0
vn -1 -0 -0
vn 0 1 0
vn 0 1 0
vn 0 1 0
vn 0 1 0
vn 1 0 0
vn 1 0 0
vn 1 0 0
vn 1 0 0
vn 0 -1 0
vn 0 -1 0
vn 0 -1 0
vn 0 -1 0
vn -0 -0 -1
vn -0 -0 -1
vn -0 -0 -1
vn -0 -0 -1
vn 0 0 1
vn 0 0 1
vn 0 0 1
vn 0 0 1
f 4/4/4 3/3/3 1/1/1
f 8/8/8 7/7/7 5/5/5
f 12/12/12 11/11/11 9/9/9
f 16/16/16 15/15/15 13/13/13
f 20/20/20 19/19/19 17/17/17
f 24/24/24 23/23/23 21/21/21
f 4/4/4 1/1/1 2/2/2
f 8/8/8 5/5/5 6/6/6
f 12/12/12 9/9/9 10/10/10
f 16/16/16 13/13/13 14/14/14
f 20/20/20 17/17/17 18/18/18
f 24/24/24 21/21/21 22/22/22
