# Rhino

mtllib Pyramid.mtl
g Default
o object_1
usemtl material1
v 0.5 0 0.5
v -0.5 0 0.5
v 0 1 0
v -0.5 0 0.5
v -0.5 0 -0.5
v 0 1 0
v -0.5 0 -0.5
v 0.5 0 -0.5
v 0 1 0
v 0.5 0 -0.5
v 0.5 0 0.5
v 0 1 0
v 0.5 0 0.5
v -0.5 0 0.5
v -0.5 0 -0.5
v 0.5 0 -0.5
vt 1 0
vt 0 0
vt 0.5 1
vt 1 1
vt 1 0
vt 0 0.5
vt 1 0
vt 0 0
vt 0.5 1
vt 0 0
vt 0 1
vt 1 0.5
vt 1 1
vt 0 1
vt 0 0
vt 1 0
vn 0 0.4472135901451111 0.8944271802902222
vn 0 0.4472135901451111 0.8944271802902222
vn 0 0.4472135901451111 0.8944271802902222
vn -0.8944271802902222 0.4472135901451111 9.930136494087607e-17
vn -0.8944271802902222 0.4472135901451111 9.930136494087607e-17
vn -0.8944271802902222 0.4472135901451111 1.48952054028759e-16
vn -9.930136494087607e-17 0.4472135901451111 -0.8944271802902222
vn -9.930136494087607e-17 0.4472135901451111 -0.8944271802902222
vn -1.48952054028759e-16 0.4472135901451111 -0.8944271802902222
vn 0.8944271802902222 0.4472135901451111 -9.930136494087607e-17
vn 0.8944271802902222 0.4472135901451111 -9.930136494087607e-17
vn 0.8944271802902222 0.4472135901451111 -9.930136494087607e-17
vn 0 -1 0
vn 0 -1 0
vn 0 -1 0
vn 0 -1 0
f 2/2/2 1/1/1 3/3/3
f 5/5/5 4/4/4 6/6/6
f 8/8/8 7/7/7 9/9/9
f 11/11/11 10/10/10 12/12/12
f 13/13/13 14/14/14 15/15/15
f 15/15/15 16/16/16 13/13/13
