# Rhino

mtllib PyramidTetrahedron.mtl
o Pyramid
usemtl material1
v -4 0 0
v -4 -4 0
v 0 0 0
v 0 -4 0
v -4 0 0
v -4 -4 0
v -2 -2 4
v 0 0 0
v -4 0 0
v -2 -2 4
v 0 -4 0
v 0 0 0
v -2 -2 4
v -4 -4 0
v 0 -4 0
v -2 -2 4
vt 0 0
vt 0 0.3571053445339203
vt 0.3571053445339203 0
vt 0.3571053445339203 0.3571053445339203
vt 0.3585701882839203 0
vt 0.3585701882839203 0.4706711173057556
vt 0.8847965002059937 0.2353355586528778
vt 0.6792851090431213 0.8290683627128601
vt 0.99853515625 0.8290683627128601
vt 0.8389101028442383 0.4721359610557556
vt 0.3585701882839203 0.8290683627128601
vt 0.6778202652931213 0.8290683627128601
vt 0.5181952118873596 0.4721359610557556
vt 0 0.5
vt 0 0.8194047212600708
vt 0.3571053445339203 0.6597023606300354
vn 0 0 -1
vn 0 0 -1
vn 0 0 -1
vn 0 0 -1
vn -0.8944271802902222 -0 0.4472135901451111
vn -0.8944271802902222 -0 0.4472135901451111
vn -0.8944271802902222 -0 0.4472135901451111
vn 0 0.8944271802902222 0.4472135901451111
vn 0 0.8944271802902222 0.4472135901451111
vn 0 0.8944271802902222 0.4472135901451111
vn 0.8944271802902222 -0 0.4472135901451111
vn 0.8944271802902222 -0 0.4472135901451111
vn 0.8944271802902222 -0 0.4472135901451111
vn -0 -0.8944271802902222 0.4472135901451111
vn -0 -0.8944271802902222 0.4472135901451111
vn -0 -0.8944271802902222 0.4472135901451111
f 2/2/2 1/1/1 3/3/3
f 4/4/4 2/2/2 3/3/3
f 6/6/6 7/7/7 5/5/5
f 9/9/9 10/10/10 8/8/8
f 12/12/12 13/13/13 11/11/11
f 15/15/15 16/16/16 14/14/14
o Tetrahedron
usemtl material2
v 2 3.464101552963257 5.949667285866083e-17
v 0 0 5.949667285866083e-17
v 2 1.154700517654419 3.464101552963257
v 0 0 5.949667285866083e-17
v 4 -1.367440143289331e-15 5.949667285866083e-17
v 2 1.154700517654419 3.464101552963257
v 4 -1.367440143289331e-15 5.949667285866083e-17
v 2 1.154700517654419 3.464101552963257
v 2 3.464101552963257 5.949667285866083e-17
v 4 -1.367440143289331e-15 5.949667285866083e-17
v 0 0 5.949667285866083e-17
v 2 3.464101552963257 5.949667285866083e-17
vt 0 0.4868329763412476
vt 0.49853515625 0.4868329763412476
vt 0.249267578125 0.9419312477111816
vt 0.5 0
vt 0.99853515625 0
vt 0.749267578125 0.4550982415676117
vt 0.5 0.5
vt 0.749267578125 0.9550982713699341
vt 0.99853515625 0.5
vt 0.49853515625 0
vt 0 0
vt 0.249267578125 0.4317440986633301
vn -0.8215838074684143 0.4743416607379913 0.3162277638912201
vn -0.8215838074684143 0.4743416607379913 0.3162277638912201
vn -0.8215838074684143 0.4743416607379913 0.3162277638912201
vn -4.155310440471307e-16 -0.9486833214759827 0.3162277638912201
vn -4.155310440471307e-16 -0.9486833214759827 0.3162277638912201
vn -3.519905498714941e-16 -0.9486833214759827 0.3162277638912201
vn 0.8215838074684143 0.4743416607379913 0.3162277638912201
vn 0.8215838074684143 0.4743416607379913 0.3162277638912201
vn 0.8215838074684143 0.4743416607379913 0.3162277638912201
vn -0 0 -1
vn -0 0 -1
vn -7.231928806156058e-35 1.412180712332206e-34 -1
f 17/17/17 18/18/18 19/19/19
f 22/22/22 20/20/20 21/21/21
f 25/25/25 24/24/24 23/23/23
f 28/28/28 26/26/26 27/27/27
